# xmcd CD database file
#
# Track frame offsets:
#	150
#	16175
#	41325
#	68340
#	91575
#	113552
#	132572
#	164570
#	185734
#
# Disc length: 2772 seconds
#
# Revision: 0
# Processed by: cddbd v1.4PL0 Copyright (c) Steve Scherf et al.
# Submitted via: CDex 1.51
#
DISCID=690ad209
DTITLE=TERUO NAKAMURA AND THE RISING SUN - RED SHOES
DYEAR=2001
DGENRE=Jazz
TTITLE0=I'VE GOT U ON MY MIND
TTITLE1=BUSHMAN SONG
TTITLE2=RISING SUN
TTITLE3=I FEEL YOUR LOVE
TTITLE4=RED SHOES
TTITLE5=FILTHY RICH
TTITLE6=STEPPIN' WITH THE LORD
TTITLE7=SWEET ROMANCE
TTITLE8=KEY OF HAPPINESS
EXTD=YEAR: 2001
EXTT0=
EXTT1=
EXTT2=
EXTT3=
EXTT4=
EXTT5=
EXTT6=
EXTT7=
EXTT8=
PLAYORDER=
